<svg width="40" height="36" viewBox="0 0 40 36" fill="none" xmlns="http://www.w3.org/2000/svg">
<path d="M33.75 9H27.5C27.5 7.20979 26.7098 5.4929 25.3033 4.22703C23.8968 2.96116 21.9891 2.25 20 2.25C18.0109 2.25 16.1032 2.96116 14.6967 4.22703C13.2902 5.4929 12.5 7.20979 12.5 9H6.25C5.58696 9 4.95107 9.23705 4.48223 9.65901C4.01339 10.081 3.75 10.6533 3.75 11.25V28.125C3.75 28.7217 4.01339 29.294 4.48223 29.716C4.95107 30.1379 5.58696 30.375 6.25 30.375H33.75C34.413 30.375 35.0489 30.1379 35.5178 29.716C35.9866 29.294 36.25 28.7217 36.25 28.125V11.25C36.25 10.6533 35.9866 10.081 35.5178 9.65901C35.0489 9.23705 34.413 9 33.75 9ZM20 4.5C21.3261 4.5 22.5979 4.97411 23.5355 5.81802C24.4732 6.66193 25 7.80653 25 9H15C15 7.80653 15.5268 6.66193 16.4645 5.81802C17.4021 4.97411 18.6739 4.5 20 4.5ZM33.75 28.125H6.25V11.25H12.5V13.5C12.5 13.7984 12.6317 14.0845 12.8661 14.2955C13.1005 14.5065 13.4185 14.625 13.75 14.625C14.0815 14.625 14.3995 14.5065 14.6339 14.2955C14.8683 14.0845 15 13.7984 15 13.5V11.25H25V13.5C25 13.7984 25.1317 14.0845 25.3661 14.2955C25.6005 14.5065 25.9185 14.625 26.25 14.625C26.5815 14.625 26.8995 14.5065 27.1339 14.2955C27.3683 14.0845 27.5 13.7984 27.5 13.5V11.25H33.75V28.125Z" fill="black"/>
</svg>
