<svg width="80" height="80" viewBox="0 0 18 18" fill="none" xmlns="http://www.w3.org/2000/svg">
<ellipse cx="42" cy="36" rx="42" ry="36" fill="#D9D9D9"/>
<path d="M44 18C46.6522 18 49.1957 18.8429 51.0711 20.3431C52.9464 21.8434 54 23.8783 54 26C54 28.1217 52.9464 30.1566 51.0711 31.6569C49.1957 33.1571 46.6522 34 44 34C41.3478 34 38.8043 33.1571 36.9289 31.6569C35.0536 30.1566 34 28.1217 34 26C34 23.8783 35.0536 21.8434 36.9289 20.3431C38.8043 18.8429 41.3478 18 44 18ZM44 38C55.05 38 64 41.58 64 46V50H24V46C24 41.58 32.95 38 44 38Z" fill="black"/>
</svg>
