<svg width="94" height="80" viewBox="0 0 94 80" fill="none" xmlns="http://www.w3.org/2000/svg">
<path d="M84.0297 0.9375L84.0246 76.0062C85.3686 78.2178 86.759 79.0682 87.925 79.0625C89.082 79.057 90.4576 78.1965 91.7754 76.0512L88.1766 37.709L88.1346 37.242L88.4227 36.8697C92.5582 31.5633 94.0033 22.3955 92.8236 14.6412C92.2338 10.7639 90.999 7.25449 89.2699 4.77363C87.8199 2.69316 86.0902 1.36602 84.0301 0.9375H84.0297ZM11.3002 0.938282L11.2971 14.049L8.84395 14.0459V0.939062H6.05L6.05039 14.0465H3.59375V0.939062H0.748047V21.1008C0.747852 23.3307 1.96484 24.5672 3.88086 25.3316L4.67383 25.6484L4.65625 26.502C4.26562 43.0195 3.87949 59.5369 3.4918 76.0543C4.82773 78.2402 6.2 79.068 7.34258 79.0625C8.48516 79.057 9.85625 78.2076 11.1752 76.0484C10.723 59.5354 10.2709 43.0219 9.81953 26.5086L9.79609 25.6492L10.5916 25.3355C12.608 24.5336 13.9195 23.1727 13.9195 21.102V0.938282H11.3002ZM47.0008 8.55469C38.661 8.55469 30.6627 11.8677 24.7656 17.7648C18.8684 23.6619 15.5555 31.6602 15.5555 40C15.5555 48.3398 18.8684 56.3381 24.7656 62.2352C30.6627 68.1323 38.661 71.4453 47.0008 71.4453C55.3406 71.4453 63.3388 68.1323 69.236 62.2352C75.1331 56.3381 78.4461 48.3398 78.4461 40C78.4461 31.6602 75.1331 23.6619 69.236 17.7648C63.3388 11.8677 55.3406 8.55469 47.0008 8.55469Z" fill="#F8F8F8"/>
</svg>
