<svg width="40" height="40" viewBox="0 0 40 40" fill="none" xmlns="http://www.w3.org/2000/svg">
<path d="M38.6487 10.0878L30.6893 1.46413C29.824 0.52666 28.6505 0 27.4268 0C26.2031 0 25.0295 0.52666 24.1642 1.46413L1.35133 26.1812C0.486086 27.1188 0 28.3903 0 29.7161C0 31.0419 0.486086 32.3135 1.35133 33.251L7.1305 39.5126C7.27389 39.6678 7.44419 39.7907 7.6316 39.8744C7.819 39.958 8.01982 40.0007 8.2225 40H36.9184C37.3263 40 37.7175 39.8244 38.0059 39.5119C38.2944 39.1994 38.4564 38.7755 38.4564 38.3336C38.4564 37.8916 38.2944 37.4678 38.0059 37.1552C37.7175 36.8427 37.3263 36.6672 36.9184 36.6672H20.6344L38.6487 17.1576C39.5139 16.2201 40 14.9485 40 13.6227C40 12.2969 39.5139 11.0254 38.6487 10.0878ZM16.2856 36.6672H8.85886L3.52957 30.893C3.24135 30.5805 3.07945 30.1569 3.07945 29.7151C3.07945 29.2733 3.24135 28.8496 3.52957 28.5371L13.8479 17.3597L23.9777 28.3351L16.2856 36.6672ZM36.4723 14.7955L26.1521 25.9792L16.0223 15.0038L26.3444 3.82627C26.4872 3.67134 26.6569 3.54842 26.8436 3.46456C27.0303 3.3807 27.2304 3.33754 27.4326 3.33754C27.6347 3.33754 27.8348 3.3807 28.0215 3.46456C28.2082 3.54842 28.3779 3.67134 28.5207 3.82627L36.4762 12.4458C36.7644 12.7583 36.9263 13.182 36.9263 13.6238C36.9263 14.0655 36.7644 14.4892 36.4762 14.8017L36.4723 14.7955Z" fill="black"/>
</svg>