<svg width="40" height="40" viewBox="0 0 40 40" fill="none" xmlns="http://www.w3.org/2000/svg">
<rect width="40" height="40" rx="20" fill="white"/>
<path d="M19.0489 9.92705C19.3483 9.00574 20.6517 9.00574 20.9511 9.92705L22.9187 15.9828C23.0526 16.3948 23.4365 16.6738 23.8697 16.6738H30.2371C31.2058 16.6738 31.6086 17.9134 30.8249 18.4828L25.6736 22.2254C25.3231 22.4801 25.1764 22.9314 25.3103 23.3435L27.2779 29.3992C27.5773 30.3205 26.5228 31.0866 25.7391 30.5172L20.5878 26.7746C20.2373 26.5199 19.7627 26.5199 19.4122 26.7746L14.2609 30.5172C13.4772 31.0866 12.4227 30.3205 12.7221 29.3992L14.6897 23.3435C14.8236 22.9314 14.6769 22.4801 14.3264 22.2254L9.17511 18.4828C8.39139 17.9134 8.79417 16.6738 9.76289 16.6738H16.1303C16.5635 16.6738 16.9474 16.3948 17.0813 15.9828L19.0489 9.92705Z" fill="#FFA500"/>
</svg>
