<svg width="42" height="42" viewBox="0 0 42 42" fill="none" xmlns="http://www.w3.org/2000/svg">
<path d="M9.82892 16.9458L17.6427 2.81267C17.9455 2.25406 18.371 1.79372 18.8778 1.47649C19.3845 1.15927 19.9553 0.995973 20.5344 1.00251C20.9905 0.983886 21.4452 1.06891 21.8718 1.25255C22.2983 1.43619 22.688 1.71473 23.0178 2.07171C23.3476 2.42868 23.6109 2.85685 23.7919 3.3309C23.973 3.80495 24.0683 4.31526 24.0721 4.83169V14.9616H37.5769C38.076 14.9799 38.5659 15.1175 39.0146 15.3654C39.4632 15.6133 39.8604 15.9659 40.18 16.3999C40.4997 16.8339 40.7345 17.3396 40.8691 17.8837C41.0036 18.4277 41.0349 18.9979 40.9609 19.5566L38.4998 37.5189C38.3949 38.4788 37.9837 39.3623 37.3435 40.0034C36.7034 40.6444 35.8784 40.9988 35.0236 40.9999H14.8433C13.8826 41.0042 12.9344 40.7538 12.0746 40.2689L9.85968 39.0157M9.82892 16.9458V38.9113H2.53814C2.1302 38.9113 1.73897 38.7279 1.45051 38.4015C1.16205 38.0751 1 37.6324 1 37.1708V18.6863C1 18.2247 1.16205 17.782 1.45051 17.4556C1.73897 17.1292 2.1302 16.9458 2.53814 16.9458H9.82892Z" stroke="black" stroke-linecap="round" stroke-linejoin="round"/>
</svg>