<svg width="64" height="64" viewBox="0 0 64 64" fill="#CCCCCC" xmlns="http://www.w3.org/2000/svg">
    <path d="M32 62C48.5685 62 62 48.5685 62 32C62 15.4315 48.5685 2 32 2C15.4315 2 2 15.4315 2 32C2 48.5685 15.4315 62 32 62Z" fill="#FFFFFF"/>
    <path d="M44.9004 37.3996C44.4004 39.0996 43.6004 40.3996 42.6004 41.4996L45.9004 44.5996L42.8004 47.9996L39.3004 44.6996C38.2004 45.2996 37.3004 45.7996 36.5004 46.0996C35.2004 46.4996 33.6004 46.7996 31.8004 46.7996C28.0004 46.7996 24.9004 45.6996 22.4004 43.3996C19.4004 40.6996 17.9004 36.6996 17.9004 31.3996C17.9004 26.0996 19.4004 22.0996 22.5004 19.3996C25.0004 17.1996 28.1004 16.0996 31.9004 16.0996C35.7004 16.0996 38.8004 17.2996 41.3004 19.5996C44.2004 22.2996 45.7004 26.0996 45.7004 30.9996C45.8004 33.4996 45.5004 35.6996 44.9004 37.3996ZM33.9004 41.2996C34.3004 41.1996 34.7004 40.9996 35.3004 40.7996L32.3004 37.9996L35.4004 34.6996L38.3004 37.4996C38.8004 36.5996 39.1004 35.6996 39.3004 34.9996C39.6004 33.8996 39.7004 32.6996 39.7004 31.2996C39.7004 27.9996 39.0004 25.4996 37.7004 23.7996C36.4004 21.9996 34.4004 21.0996 31.9004 21.0996C29.5004 21.0996 27.6004 21.9996 26.2004 23.6996C24.8004 25.3996 24.0004 27.9996 24.0004 31.3996C24.0004 35.3996 25.0004 38.1996 27.1004 39.8996C28.4004 40.9996 30.0004 41.5996 31.9004 41.5996C32.6004 41.5996 33.3004 41.4996 33.9004 41.2996Z" fill="#8B4513"/>
</svg>
