<svg width="36" height="36" viewBox="0 0 36 36" fill="none" xmlns="http://www.w3.org/2000/svg">
<path d="M30.87 13.7329L32.415 12.1879C33.6441 10.9588 34.3345 9.29185 34.3345 7.5537C34.3345 5.81555 33.6441 4.14859 32.415 2.91953C31.1859 1.69048 29.519 1 27.7808 1C26.0427 1 24.3757 1.69048 23.1467 2.91953L21.6017 4.46453L7.39833 18.6645C6.43666 19.6279 5.95499 20.1095 5.54166 20.6395C5.0535 21.265 4.63493 21.9418 4.29333 22.6579C4.00499 23.2645 3.78999 23.9112 3.35999 25.2012L1.53666 30.6695M30.87 13.7329C30.87 13.7329 27.5883 13.5395 24.6917 10.6429C21.795 7.74787 21.6033 4.46453 21.6033 4.46453M30.87 13.7329L16.6683 27.9329C15.7067 28.8945 15.225 29.3762 14.695 29.7895C14.0695 30.2777 13.3928 30.6963 12.6767 31.0379C12.07 31.3262 11.425 31.5412 10.1333 31.9712L4.66499 33.7945M4.66499 33.7945L3.32833 34.2412C3.01675 34.3457 2.68221 34.3612 2.3623 34.286C2.0424 34.2107 1.74982 34.0478 1.51744 33.8154C1.28507 33.583 1.12212 33.2905 1.0469 32.9706C0.971681 32.6507 0.987182 32.3161 1.09166 32.0045L1.53833 30.6679L4.66499 33.7945Z" stroke="black" stroke-width="1.5"/>
</svg>


