<svg width="40" height="36" viewBox="0 0 40 36" fill="none" xmlns="http://www.w3.org/2000/svg">
<path d="M10.01 28.2857H29.9904V30.8571H10.01V28.2857ZM14.0061 33.4286H25.9943V36H14.0061V33.4286ZM20.0002 0C14.7011 0 9.61901 1.35459 5.87196 3.76577C2.12492 6.17695 0.0198482 9.44722 0.0198482 12.8571C-0.115271 14.7257 0.440982 16.5882 1.64284 18.2915C2.84471 19.9947 4.65783 21.49 6.93306 22.6543C8.93109 23.85 10.01 24.5314 10.01 25.7143H14.0061C14.0061 23.3486 11.7883 22.0243 9.63041 20.7514C7.76296 19.8312 6.27465 18.6304 5.29583 17.2541C4.31701 15.8778 3.87754 14.3681 4.01592 12.8571C4.01592 10.1292 5.69998 7.51299 8.69761 5.58404C11.6953 3.6551 15.7609 2.57143 20.0002 2.57143C24.2395 2.57143 28.3052 3.6551 31.3028 5.58404C34.3005 7.51299 35.9845 10.1292 35.9845 12.8571C36.1206 14.3692 35.6781 15.8796 34.6957 17.256C33.7133 18.6324 32.2212 19.8326 30.3501 20.7514C28.2122 22.0371 25.9943 23.3229 25.9943 25.7143H29.9904C29.9904 24.5314 31.0494 23.85 33.0674 22.6414C35.341 21.4791 37.1533 19.986 38.3552 18.285C39.5571 16.584 40.1141 14.7237 39.9806 12.8571C39.9806 11.1687 39.4638 9.49683 38.4597 7.93693C37.4556 6.37703 35.9838 4.95967 34.1285 3.76577C32.2731 2.57187 30.0705 1.62482 27.6464 0.978692C25.2222 0.33256 22.6241 0 20.0002 0Z" fill="black"/>
</svg>
